<svg width="35" height="35" viewBox="0 0 35 35" fill="none" xmlns="http://www.w3.org/2000/svg">
<path d="M17.5 0C14.0388 0 10.6554 1.02636 7.77753 2.94928C4.89967 4.87221 2.65665 7.60533 1.33212 10.803C0.00758248 14.0007 -0.338976 17.5194 0.336266 20.9141C1.01151 24.3087 2.67822 27.4269 5.12564 29.8744C7.57306 32.3218 10.6913 33.9885 14.0859 34.6637C17.4806 35.339 20.9993 34.9924 24.197 33.6679C27.3947 32.3434 30.1278 30.1003 32.0507 27.2225C33.9737 24.3446 35 20.9612 35 17.5C34.9942 12.8605 33.1486 8.41266 29.868 5.13202C26.5874 1.85139 22.1395 0.00578854 17.5 0ZM23.6317 18.6207L15.5548 24.0053C15.3333 24.1521 15.0735 24.2305 14.8077 24.2308C14.4507 24.2308 14.1083 24.0889 13.8558 23.8365C13.6034 23.584 13.4615 23.2416 13.4615 22.8846V12.1154C13.4614 11.8716 13.5274 11.6324 13.6526 11.4232C13.7778 11.214 13.9574 11.0428 14.1723 10.9277C14.3872 10.8127 14.6294 10.7581 14.8728 10.7699C15.1163 10.7817 15.352 10.8594 15.5548 10.9947L23.6317 16.3793C23.8164 16.5022 23.9678 16.6688 24.0725 16.8643C24.1773 17.0598 24.2321 17.2782 24.2321 17.5C24.2321 17.7218 24.1773 17.9402 24.0725 18.1357C23.9678 18.3312 23.8164 18.4978 23.6317 18.6207Z" fill="#F8FAFC"/>
</svg>
