<svg width="16" height="16" viewBox="0 0 16 16" fill="none" xmlns="http://www.w3.org/2000/svg">
<path d="M8.75 5.5C8.75 5.30109 8.82902 5.11032 8.96967 4.96967C9.11032 4.82902 9.30109 4.75 9.5 4.75H11.5C11.6989 4.75 11.8897 4.82902 12.0303 4.96967C12.171 5.11032 12.25 5.30109 12.25 5.5V7.5C12.25 7.69891 12.171 7.88968 12.0303 8.03033C11.8897 8.17098 11.6989 8.25 11.5 8.25C11.3011 8.25 11.1103 8.17098 10.9697 8.03033C10.829 7.88968 10.75 7.69891 10.75 7.5V6.25H9.5C9.30109 6.25 9.11032 6.17098 8.96967 6.03033C8.82902 5.88968 8.75 5.69891 8.75 5.5ZM4.5 11.25H6.5C6.69891 11.25 6.88968 11.171 7.03033 11.0303C7.17098 10.8897 7.25 10.6989 7.25 10.5C7.25 10.3011 7.17098 10.1103 7.03033 9.96967C6.88968 9.82902 6.69891 9.75 6.5 9.75H5.25V8.5C5.25 8.30109 5.17098 8.11032 5.03033 7.96967C4.88968 7.82902 4.69891 7.75 4.5 7.75C4.30109 7.75 4.11032 7.82902 3.96967 7.96967C3.82902 8.11032 3.75 8.30109 3.75 8.5V10.5C3.75 10.6989 3.82902 10.8897 3.96967 11.0303C4.11032 11.171 4.30109 11.25 4.5 11.25ZM14.75 3.5V12.5C14.75 12.8315 14.6183 13.1495 14.3839 13.3839C14.1495 13.6183 13.8315 13.75 13.5 13.75H2.5C2.16848 13.75 1.85054 13.6183 1.61612 13.3839C1.3817 13.1495 1.25 12.8315 1.25 12.5V3.5C1.25 3.16848 1.3817 2.85054 1.61612 2.61612C1.85054 2.3817 2.16848 2.25 2.5 2.25H13.5C13.8315 2.25 14.1495 2.3817 14.3839 2.61612C14.6183 2.85054 14.75 3.16848 14.75 3.5ZM13.25 3.75H2.75V12.25H13.25V3.75Z" fill="#F8FAFC"/>
</svg>
