<svg width="16" height="16" viewBox="0 0 16 16" fill="none" xmlns="http://www.w3.org/2000/svg">
<path d="M9.82938 1.32628C9.70323 1.2646 9.56231 1.23958 9.42265 1.25406C9.28298 1.26853 9.15019 1.32192 9.03938 1.40815L4.7425 4.75003H2C1.66848 4.75003 1.35054 4.88172 1.11612 5.11614C0.881696 5.35056 0.75 5.6685 0.75 6.00002V10C0.75 10.3315 0.881696 10.6495 1.11612 10.8839C1.35054 11.1183 1.66848 11.25 2 11.25H4.7425L9.03938 14.5919C9.15019 14.6781 9.28299 14.7315 9.42266 14.746C9.56233 14.7605 9.70326 14.7355 9.82941 14.6738C9.95556 14.6121 10.0619 14.5163 10.1362 14.3972C10.2106 14.278 10.25 14.1404 10.25 14V2.00003C10.25 1.85961 10.2106 1.72201 10.1362 1.6029C10.0618 1.48379 9.95553 1.38794 9.82938 1.32628ZM2.25 6.25002H4.25V9.75002H2.25V6.25002ZM8.75 12.4663L5.75 10.1332V5.8669L8.75 3.53378V12.4663ZM13.25 8.00002C13.2501 8.66998 13.0056 9.31693 12.5625 9.8194C12.4973 9.89327 12.4183 9.95358 12.3298 9.99688C12.2413 10.0402 12.1452 10.0656 12.0468 10.0718C11.9485 10.078 11.85 10.0647 11.7568 10.0327C11.6636 10.0008 11.5776 9.95082 11.5037 9.88565C11.4299 9.82048 11.3696 9.7414 11.3263 9.65293C11.283 9.56445 11.2575 9.46831 11.2514 9.37C11.2452 9.27168 11.2585 9.17312 11.2904 9.07993C11.3224 8.98675 11.3723 8.90077 11.4375 8.8269C11.6384 8.59867 11.7492 8.30503 11.7492 8.00096C11.7492 7.6969 11.6384 7.40326 11.4375 7.17502C11.3126 7.02495 11.2512 6.83208 11.2663 6.63743C11.2813 6.44277 11.3717 6.26166 11.5182 6.13258C11.6647 6.00351 11.8557 5.93665 12.0507 5.94621C12.2457 5.95577 12.4293 6.04099 12.5625 6.18377C13.0052 6.68525 13.2497 7.33108 13.25 8.00002ZM15.75 8.00002C15.7508 9.29155 15.2747 10.5379 14.4131 11.5C14.2805 11.6483 14.0944 11.7378 13.8958 11.7489C13.6972 11.76 13.5023 11.6917 13.3541 11.5591C13.2058 11.4265 13.1163 11.2404 13.1052 11.0418C13.0941 10.8432 13.1624 10.6483 13.295 10.5C13.9099 9.8125 14.2499 8.92244 14.2499 8.00002C14.2499 7.07761 13.9099 6.18755 13.295 5.50002C13.2267 5.4271 13.1736 5.34125 13.1389 5.24752C13.1042 5.15379 13.0886 5.05407 13.093 4.95423C13.0973 4.85438 13.1216 4.75641 13.1644 4.66609C13.2072 4.57576 13.2676 4.4949 13.3421 4.42825C13.4166 4.36161 13.5036 4.31052 13.5981 4.27799C13.6926 4.24546 13.7927 4.23215 13.8924 4.23883C13.9921 4.24552 14.0895 4.27207 14.1788 4.31692C14.2681 4.36178 14.3476 4.42403 14.4125 4.50003C15.2743 5.46207 15.7506 6.70842 15.75 8.00002Z" fill="#F8FAFC"/>
</svg>
