<svg width="22" height="22" viewBox="0 0 22 22" fill="none" xmlns="http://www.w3.org/2000/svg">
<path d="M9.625 5.15625C9.625 4.8843 9.70564 4.61846 9.85673 4.39234C10.0078 4.16622 10.2226 3.98999 10.4738 3.88592C10.7251 3.78185 11.0015 3.75462 11.2683 3.80767C11.535 3.86073 11.78 3.99168 11.9723 4.18398C12.1646 4.37628 12.2955 4.62128 12.3486 4.888C12.4016 5.15473 12.3744 5.43119 12.2703 5.68244C12.1663 5.93369 11.99 6.14843 11.7639 6.29952C11.5378 6.45061 11.272 6.53125 11 6.53125C10.6353 6.53125 10.2856 6.38638 10.0277 6.12852C9.76987 5.87066 9.625 5.52092 9.625 5.15625ZM11 9.625C10.7281 9.625 10.4622 9.70564 10.2361 9.85673C10.01 10.0078 9.83374 10.2226 9.72967 10.4738C9.6256 10.7251 9.59837 11.0015 9.65142 11.2682C9.70448 11.535 9.83543 11.78 10.0277 11.9723C10.22 12.1646 10.465 12.2955 10.7318 12.3486C10.9985 12.4016 11.2749 12.3744 11.5262 12.2703C11.7774 12.1663 11.9922 11.99 12.1433 11.7639C12.2944 11.5378 12.375 11.2719 12.375 11C12.375 10.6353 12.2301 10.2856 11.9723 10.0277C11.7144 9.76987 11.3647 9.625 11 9.625ZM11 15.4688C10.7281 15.4688 10.4622 15.5494 10.2361 15.7005C10.01 15.8516 9.83374 16.0663 9.72967 16.3176C9.6256 16.5688 9.59837 16.8453 9.65142 17.112C9.70448 17.3787 9.83543 17.6237 10.0277 17.816C10.22 18.0083 10.465 18.1393 10.7318 18.1923C10.9985 18.2454 11.2749 18.2182 11.5262 18.1141C11.7774 18.01 11.9922 17.8338 12.1433 17.6077C12.2944 17.3815 12.375 17.1157 12.375 16.8438C12.375 16.4791 12.2301 16.1293 11.9723 15.8715C11.7144 15.6136 11.3647 15.4688 11 15.4688Z" fill="#94A3B8"/>
</svg>
