<svg width="24" height="24" viewBox="0 0 24 24" fill="none" xmlns="http://www.w3.org/2000/svg">
<path d="M20.9064 5.34375C19.8874 4.32736 18.5075 3.7558 17.0683 3.75404C15.6291 3.75229 14.2478 4.32048 13.2264 5.33438L12.0001 6.47344L10.7729 5.33063C9.75176 4.31232 8.3679 3.74138 6.92577 3.7434C5.48365 3.74542 4.10139 4.32024 3.08308 5.34141C2.06478 6.36257 1.49383 7.74644 1.49585 9.18856C1.49788 10.6307 2.0727 12.0129 3.09386 13.0313L11.4704 21.5306C11.5402 21.6015 11.6234 21.6578 11.7151 21.6962C11.8069 21.7346 11.9053 21.7544 12.0048 21.7544C12.1043 21.7544 12.2027 21.7346 12.2945 21.6962C12.3862 21.6578 12.4694 21.6015 12.5392 21.5306L20.9064 13.0313C21.9254 12.0116 22.4978 10.6291 22.4978 9.1875C22.4978 7.74595 21.9254 6.36339 20.9064 5.34375ZM19.8423 11.9775L12.0001 19.9313L4.15324 11.97C3.41478 11.2315 2.99991 10.23 2.99991 9.18563C2.99991 8.14128 3.41478 7.13971 4.15324 6.40125C4.8917 5.66279 5.89327 5.24793 6.93761 5.24793C7.98196 5.24793 8.98353 5.66279 9.72199 6.40125L9.74074 6.42L11.4892 8.04656C11.628 8.17572 11.8105 8.24753 12.0001 8.24753C12.1897 8.24753 12.3723 8.17572 12.5111 8.04656L14.2595 6.42L14.2782 6.40125C15.0172 5.66329 16.019 5.2491 17.0634 5.2498C18.1077 5.2505 19.109 5.66604 19.847 6.405C20.585 7.14396 20.9991 8.14581 20.9984 9.19015C20.9977 10.2345 20.5822 11.2358 19.8432 11.9738L19.8423 11.9775Z" fill="#94A3B8"/>
</svg>
