<svg width="18" height="18" viewBox="0 0 18 18" fill="none" xmlns="http://www.w3.org/2000/svg">
<path d="M15.2219 7.34695L9.59692 12.972C9.51854 13.0506 9.42539 13.113 9.32283 13.1556C9.22027 13.1982 9.11032 13.2201 8.99927 13.2201C8.88822 13.2201 8.77826 13.1982 8.6757 13.1556C8.57314 13.113 8.48 13.0506 8.40161 12.972L2.77661 7.34695C2.6181 7.18845 2.52905 6.97346 2.52905 6.7493C2.52905 6.52513 2.6181 6.31015 2.77661 6.15164C2.93512 5.99313 3.1501 5.90408 3.37427 5.90408C3.59843 5.90408 3.81341 5.99313 3.97192 6.15164L8.99997 11.1797L14.028 6.15094C14.1865 5.99243 14.4015 5.90338 14.6257 5.90338C14.8498 5.90338 15.0648 5.99243 15.2233 6.15094C15.3818 6.30945 15.4709 6.52443 15.4709 6.7486C15.4709 6.97276 15.3818 7.18774 15.2233 7.34625L15.2219 7.34695Z" fill="#E2E8F0"/>
</svg>
